Normalized EMG Linear Envelopes
nRows=27
nColumns=17

endheader
time	        VM	        VL	        RF	       GRA	        TA	   ADDLONG	   SEMIMEM	      BFLH	        GM	        GL	       TFL	   GLUTMAX	   GLUTMED	      PIRI	    OBTINT	        QF	
3.3325	  0.111569	  0.279548	  0.317364	  0.739635	  0.264331	  0.394202	  0.201434	  0.172106	  0.269081	  0.308655	  0.346437	  0.029014	  0.089197	  0.000000	  0.000000	  0.000000	
3.333	  0.109075	  0.277580	  0.316919	  0.741964	  0.265890	  0.393640	  0.202529	  0.173584	  0.269495	  0.310286	  0.345580	  0.028847	  0.088753	  0.000000	  0.000000	  0.000000	
3.3335	  0.106622	  0.275648	  0.316519	  0.744229	  0.267522	  0.393070	  0.203586	  0.175044	  0.269846	  0.311875	  0.344744	  0.028686	  0.088311	  0.000000	  0.000000	  0.000000	
3.334	  0.104209	  0.273750	  0.316165	  0.746432	  0.269229	  0.392494	  0.204605	  0.176487	  0.270136	  0.313423	  0.343931	  0.028530	  0.087870	  0.000000	  0.000000	  0.000000	
3.3345	  0.101838	  0.271886	  0.315855	  0.748571	  0.271011	  0.391911	  0.205585	  0.177911	  0.270367	  0.314929	  0.343141	  0.028379	  0.087431	  0.000000	  0.000000	  0.000000	
3.335	  0.099507	  0.270057	  0.315592	  0.750648	  0.272868	  0.391322	  0.206526	  0.179316	  0.270541	  0.316392	  0.342374	  0.028233	  0.086994	  0.000000	  0.000000	  0.000000	
3.3355	  0.097218	  0.268262	  0.315374	  0.752661	  0.274801	  0.390726	  0.207429	  0.180702	  0.270659	  0.317811	  0.341631	  0.028092	  0.086558	  0.000000	  0.000000	  0.000000	
3.336	  0.094970	  0.266500	  0.315203	  0.754613	  0.276811	  0.390125	  0.208292	  0.182068	  0.270723	  0.319187	  0.340912	  0.027956	  0.086123	  0.000000	  0.000000	  0.000000	
3.3365	  0.092763	  0.264771	  0.315079	  0.756502	  0.278899	  0.389519	  0.209116	  0.183413	  0.270735	  0.320518	  0.340218	  0.027823	  0.085690	  0.000000	  0.000000	  0.000000	
3.337	  0.090598	  0.263075	  0.315001	  0.758328	  0.281064	  0.388908	  0.209900	  0.184738	  0.270696	  0.321806	  0.339548	  0.027696	  0.085257	  0.000000	  0.000000	  0.000000	
3.3375	  0.088473	  0.261411	  0.314971	  0.760091	  0.283307	  0.388291	  0.210646	  0.186041	  0.270608	  0.323050	  0.338904	  0.027572	  0.084827	  0.000000	  0.000000	  0.000000	
3.338	  0.086390	  0.259779	  0.314989	  0.761791	  0.285627	  0.387671	  0.211353	  0.187322	  0.270472	  0.324249	  0.338285	  0.027452	  0.084397	  0.000000	  0.000000	  0.000000	
3.3385	  0.084347	  0.258178	  0.315054	  0.763426	  0.288027	  0.387045	  0.212021	  0.188582	  0.270290	  0.325403	  0.337692	  0.027337	  0.083969	  0.000000	  0.000000	  0.000000	
3.339	  0.082345	  0.256609	  0.315168	  0.764997	  0.290504	  0.386415	  0.212650	  0.189818	  0.270062	  0.326513	  0.337124	  0.027225	  0.083542	  0.000000	  0.000000	  0.000000	
3.3395	  0.080384	  0.255071	  0.315332	  0.766502	  0.293060	  0.385780	  0.213241	  0.191032	  0.269791	  0.327577	  0.336582	  0.027116	  0.083116	  0.000000	  0.000000	  0.000000	
3.34	  0.078464	  0.253564	  0.315544	  0.767942	  0.295694	  0.385140	  0.213793	  0.192221	  0.269477	  0.328596	  0.336065	  0.027012	  0.082691	  0.000000	  0.000000	  0.000000	
3.3405	  0.076585	  0.252087	  0.315806	  0.769316	  0.298407	  0.384495	  0.214308	  0.193387	  0.269121	  0.329568	  0.335573	  0.026910	  0.082268	  0.000000	  0.000000	  0.000000	
3.341	  0.074746	  0.250642	  0.316120	  0.770625	  0.301197	  0.383846	  0.214784	  0.194527	  0.268725	  0.330494	  0.335107	  0.026812	  0.081847	  0.000000	  0.000000	  0.000000	
3.3415	  0.072947	  0.249226	  0.316484	  0.771869	  0.304065	  0.383192	  0.215223	  0.195642	  0.268289	  0.331374	  0.334666	  0.026717	  0.081426	  0.000000	  0.000000	  0.000000	
3.342	  0.071188	  0.247842	  0.316901	  0.773049	  0.307011	  0.382534	  0.215625	  0.196731	  0.267816	  0.332206	  0.334249	  0.026625	  0.081008	  0.000000	  0.000000	  0.000000	
3.3425	  0.069469	  0.246488	  0.317371	  0.774165	  0.310034	  0.381872	  0.215990	  0.197793	  0.267305	  0.332990	  0.333857	  0.026536	  0.080591	  0.000000	  0.000000	  0.000000	
3.343	  0.067790	  0.245164	  0.317896	  0.775219	  0.313133	  0.381207	  0.216319	  0.198828	  0.266757	  0.333727	  0.333488	  0.026450	  0.080175	  0.000000	  0.000000	  0.000000	
3.3435	  0.066151	  0.243872	  0.318476	  0.776209	  0.316309	  0.380539	  0.216610	  0.199835	  0.266175	  0.334416	  0.333144	  0.026366	  0.079761	  0.000000	  0.000000	  0.000000	
3.344	  0.064551	  0.242609	  0.319112	  0.777137	  0.319560	  0.379869	  0.216865	  0.200812	  0.265559	  0.335057	  0.332824	  0.026285	  0.079349	  0.000000	  0.000000	  0.000000	
3.3445	  0.062990	  0.241378	  0.319805	  0.778004	  0.322886	  0.379199	  0.217084	  0.201761	  0.264910	  0.335649	  0.332526	  0.026206	  0.078939	  0.000000	  0.000000	  0.000000	
3.345	  0.061469	  0.240178	  0.320556	  0.778811	  0.326286	  0.378530	  0.217266	  0.202679	  0.264228	  0.336192	  0.332251	  0.026130	  0.078530	  0.000000	  0.000000	  0.000000	
3.3455	  0.059986	  0.239008	  0.321368	  0.779559	  0.329759	  0.377863	  0.217411	  0.203567	  0.263516	  0.336687	  0.331999	  0.026056	  0.078122	  0.000000	  0.000000	  0.000000	
